<svg width="383" height="230" viewBox="0 0 383 230" fill="none" xmlns="http://www.w3.org/2000/svg">
<rect x="47" y="111" width="310" height="119" rx="20" fill="#F3F3F3"/>
<rect x="45" y="33" width="316" height="51" rx="10" fill="#FAFAFA"/>
<path d="M258.128 55V46.48H263.084V47.536H259.244V50.116H262.28V51.172H259.244V55H258.128ZM263.972 55V49H265.004V50.164C265.116 49.796 265.332 49.5 265.652 49.276C265.98 49.052 266.324 48.94 266.684 48.94C266.86 48.94 267.016 48.956 267.152 48.988V50.056C267.008 49.992 266.82 49.96 266.588 49.96C266.172 49.96 265.804 50.14 265.484 50.5C265.164 50.86 265.004 51.368 265.004 52.024V55H263.972ZM269.411 47.188C269.275 47.324 269.103 47.392 268.895 47.392C268.687 47.392 268.511 47.324 268.367 47.188C268.223 47.044 268.151 46.868 268.151 46.66C268.151 46.46 268.223 46.288 268.367 46.144C268.511 46 268.687 45.928 268.895 45.928C269.103 45.928 269.275 46 269.411 46.144C269.547 46.288 269.615 46.46 269.615 46.66C269.615 46.868 269.547 47.044 269.411 47.188ZM268.367 55V49H269.399V55H268.367ZM281.665 55H280.705L275.521 48.364V55H274.405V46.48H275.377L280.561 53.116V46.48H281.665V55ZM286.335 55.12C285.431 55.12 284.679 54.82 284.079 54.22C283.487 53.612 283.191 52.872 283.191 52C283.191 51.128 283.487 50.392 284.079 49.792C284.679 49.184 285.431 48.88 286.335 48.88C287.231 48.88 287.975 49.184 288.567 49.792C289.167 50.392 289.467 51.128 289.467 52C289.467 52.872 289.167 53.612 288.567 54.22C287.975 54.82 287.231 55.12 286.335 55.12ZM284.823 53.536C285.215 53.952 285.719 54.16 286.335 54.16C286.951 54.16 287.451 53.952 287.835 53.536C288.219 53.12 288.411 52.608 288.411 52C288.411 51.392 288.219 50.88 287.835 50.464C287.451 50.048 286.951 49.84 286.335 49.84C285.719 49.84 285.215 50.048 284.823 50.464C284.439 50.88 284.247 51.392 284.247 52C284.247 52.608 284.439 53.12 284.823 53.536ZM292.692 55L289.92 49H291.072L293.124 53.548L295.176 49H296.328L293.556 55H292.692ZM305.131 54.004V55H299.611V54.592C299.611 54.296 299.655 54.016 299.743 53.752C299.839 53.48 299.943 53.252 300.055 53.068C300.167 52.884 300.343 52.68 300.583 52.456C300.823 52.224 301.011 52.056 301.147 51.952C301.283 51.84 301.511 51.672 301.831 51.448C302.151 51.216 302.363 51.064 302.467 50.992C303.035 50.576 303.427 50.228 303.643 49.948C303.867 49.66 303.979 49.284 303.979 48.82C303.979 48.372 303.835 48.016 303.547 47.752C303.259 47.48 302.883 47.344 302.419 47.344C301.931 47.344 301.515 47.492 301.171 47.788C300.827 48.084 300.655 48.496 300.655 49.024H299.599C299.599 48.224 299.863 47.576 300.391 47.08C300.927 46.584 301.599 46.336 302.407 46.336C303.159 46.336 303.783 46.552 304.279 46.984C304.783 47.416 305.035 48.032 305.035 48.832C305.035 49.44 304.887 49.96 304.591 50.392C304.295 50.816 303.787 51.288 303.067 51.808C302.931 51.904 302.739 52.04 302.491 52.216C302.243 52.384 302.051 52.52 301.915 52.624C301.779 52.728 301.627 52.856 301.459 53.008C301.299 53.152 301.171 53.308 301.075 53.476C300.987 53.636 300.923 53.812 300.883 54.004H305.131ZM307.971 54.736L306.735 56.716H306.051L306.855 55C306.527 54.84 306.363 54.572 306.363 54.196C306.363 53.956 306.451 53.748 306.627 53.572C306.803 53.388 307.011 53.296 307.251 53.296C307.491 53.296 307.699 53.388 307.875 53.572C308.051 53.748 308.139 53.956 308.139 54.196C308.139 54.372 308.083 54.552 307.971 54.736ZM317.788 54.004V55H312.268V54.592C312.268 54.296 312.312 54.016 312.4 53.752C312.496 53.48 312.6 53.252 312.712 53.068C312.824 52.884 313 52.68 313.24 52.456C313.48 52.224 313.668 52.056 313.804 51.952C313.94 51.84 314.168 51.672 314.488 51.448C314.808 51.216 315.02 51.064 315.124 50.992C315.692 50.576 316.084 50.228 316.3 49.948C316.524 49.66 316.636 49.284 316.636 48.82C316.636 48.372 316.492 48.016 316.204 47.752C315.916 47.48 315.54 47.344 315.076 47.344C314.588 47.344 314.172 47.492 313.828 47.788C313.484 48.084 313.312 48.496 313.312 49.024H312.256C312.256 48.224 312.52 47.576 313.048 47.08C313.584 46.584 314.256 46.336 315.064 46.336C315.816 46.336 316.44 46.552 316.936 46.984C317.44 47.416 317.692 48.032 317.692 48.832C317.692 49.44 317.544 49.96 317.248 50.392C316.952 50.816 316.444 51.288 315.724 51.808C315.588 51.904 315.396 52.04 315.148 52.216C314.9 52.384 314.708 52.52 314.572 52.624C314.436 52.728 314.284 52.856 314.116 53.008C313.956 53.152 313.828 53.308 313.732 53.476C313.644 53.636 313.58 53.812 313.54 54.004H317.788ZM322.103 55.12C321.215 55.12 320.491 54.824 319.931 54.232C319.371 53.632 319.091 52.86 319.091 51.916V49.54C319.091 48.596 319.371 47.828 319.931 47.236C320.499 46.636 321.223 46.336 322.103 46.336C322.983 46.336 323.707 46.636 324.275 47.236C324.843 47.836 325.127 48.604 325.127 49.54V51.916C325.127 52.86 324.843 53.632 324.275 54.232C323.707 54.824 322.983 55.12 322.103 55.12ZM322.103 54.112C322.695 54.112 323.175 53.916 323.543 53.524C323.911 53.132 324.095 52.596 324.095 51.916V49.54C324.095 48.86 323.911 48.324 323.543 47.932C323.175 47.54 322.695 47.344 322.103 47.344C321.519 47.344 321.043 47.54 320.675 47.932C320.307 48.324 320.123 48.86 320.123 49.54V51.916C320.123 52.596 320.307 53.132 320.675 53.524C321.043 53.916 321.519 54.112 322.103 54.112ZM331.956 54.004V55H326.436V54.592C326.436 54.296 326.48 54.016 326.568 53.752C326.664 53.48 326.768 53.252 326.88 53.068C326.992 52.884 327.168 52.68 327.408 52.456C327.648 52.224 327.836 52.056 327.972 51.952C328.108 51.84 328.336 51.672 328.656 51.448C328.976 51.216 329.188 51.064 329.292 50.992C329.86 50.576 330.252 50.228 330.468 49.948C330.692 49.66 330.804 49.284 330.804 48.82C330.804 48.372 330.66 48.016 330.372 47.752C330.084 47.48 329.708 47.344 329.244 47.344C328.756 47.344 328.34 47.492 327.996 47.788C327.652 48.084 327.48 48.496 327.48 49.024H326.424C326.424 48.224 326.688 47.576 327.216 47.08C327.752 46.584 328.424 46.336 329.232 46.336C329.984 46.336 330.608 46.552 331.104 46.984C331.608 47.416 331.86 48.032 331.86 48.832C331.86 49.44 331.712 49.96 331.416 50.392C331.12 50.816 330.612 51.288 329.892 51.808C329.756 51.904 329.564 52.04 329.316 52.216C329.068 52.384 328.876 52.52 328.74 52.624C328.604 52.728 328.452 52.856 328.284 53.008C328.124 53.152 327.996 53.308 327.9 53.476C327.812 53.636 327.748 53.812 327.708 54.004H331.956ZM336.103 55.12C335.255 55.12 334.535 54.864 333.943 54.352C333.359 53.832 333.067 53.184 333.067 52.408H334.111C334.143 52.912 334.347 53.324 334.723 53.644C335.099 53.956 335.559 54.112 336.103 54.112C336.599 54.112 337.011 53.976 337.339 53.704C337.667 53.432 337.831 53.056 337.831 52.576C337.831 52.064 337.663 51.68 337.327 51.424C336.999 51.168 336.547 51.04 335.971 51.04H335.335V50.092H336.019C336.475 50.092 336.847 49.964 337.135 49.708C337.431 49.452 337.583 49.12 337.591 48.712C337.591 48.312 337.443 47.984 337.147 47.728C336.859 47.472 336.495 47.344 336.055 47.344C335.551 47.344 335.127 47.492 334.783 47.788C334.439 48.084 334.267 48.496 334.267 49.024H333.211C333.211 48.208 333.483 47.556 334.027 47.068C334.571 46.58 335.247 46.336 336.055 46.336C336.799 46.336 337.415 46.552 337.903 46.984C338.399 47.408 338.647 47.972 338.647 48.676C338.639 49.084 338.527 49.452 338.311 49.78C338.103 50.108 337.831 50.36 337.495 50.536C337.927 50.712 338.267 50.984 338.515 51.352C338.763 51.712 338.887 52.132 338.887 52.612C338.887 53.356 338.627 53.96 338.107 54.424C337.587 54.888 336.919 55.12 336.103 55.12Z" fill="black"/>
<path d="M302.866 72V65.75H301.496L302.196 64.9H303.726V72H302.866ZM307.778 72.1C307.038 72.1 306.435 71.8533 305.968 71.36C305.501 70.86 305.268 70.2167 305.268 69.43V67.45C305.268 66.6633 305.501 66.0233 305.968 65.53C306.441 65.03 307.045 64.78 307.778 64.78C308.511 64.78 309.115 65.03 309.588 65.53C310.061 66.03 310.298 66.67 310.298 67.45V69.43C310.298 70.2167 310.061 70.86 309.588 71.36C309.115 71.8533 308.511 72.1 307.778 72.1ZM307.778 71.26C308.271 71.26 308.671 71.0967 308.978 70.77C309.285 70.4433 309.438 69.9967 309.438 69.43V67.45C309.438 66.8833 309.285 66.4367 308.978 66.11C308.671 65.7833 308.271 65.62 307.778 65.62C307.291 65.62 306.895 65.7833 306.588 66.11C306.281 66.4367 306.128 66.8833 306.128 67.45V69.43C306.128 69.9967 306.281 70.4433 306.588 70.77C306.895 71.0967 307.291 71.26 307.778 71.26ZM312.788 68.16C312.648 68.3067 312.475 68.38 312.268 68.38C312.062 68.38 311.885 68.3067 311.738 68.16C311.598 68.0133 311.528 67.8367 311.528 67.63C311.528 67.43 311.602 67.2567 311.748 67.11C311.895 66.9567 312.068 66.88 312.268 66.88C312.468 66.88 312.642 66.9567 312.788 67.11C312.935 67.2567 313.008 67.43 313.008 67.63C313.008 67.8367 312.935 68.0133 312.788 68.16ZM312.788 71.86C312.648 72.0067 312.475 72.08 312.268 72.08C312.062 72.08 311.885 72.0067 311.738 71.86C311.598 71.7133 311.528 71.5367 311.528 71.33C311.528 71.13 311.602 70.9567 311.748 70.81C311.895 70.6567 312.068 70.58 312.268 70.58C312.468 70.58 312.642 70.6567 312.788 70.81C312.935 70.9567 313.008 71.13 313.008 71.33C313.008 71.5367 312.935 71.7133 312.788 71.86ZM315.093 72V65.75H313.723L314.423 64.9H315.953V72H315.093ZM319.635 72.1C318.995 72.1 318.441 71.9 317.975 71.5C317.508 71.1 317.268 70.6267 317.255 70.08H318.135C318.215 70.4267 318.391 70.71 318.665 70.93C318.938 71.15 319.261 71.26 319.635 71.26C320.068 71.26 320.431 71.1133 320.725 70.82C321.018 70.5267 321.165 70.1667 321.165 69.74C321.165 69.3067 321.025 68.9433 320.745 68.65C320.465 68.3567 320.108 68.21 319.675 68.21C319.081 68.21 318.635 68.45 318.335 68.93L317.515 68.69L318.245 64.9H321.565V65.74H318.935L318.545 67.77C318.891 67.5233 319.305 67.4 319.785 67.4C320.445 67.4 320.985 67.6333 321.405 68.1C321.831 68.56 322.045 69.1433 322.045 69.85C322.045 70.4767 321.815 71.01 321.355 71.45C320.895 71.8833 320.321 72.1 319.635 72.1ZM327.724 72.1C327.03 72.1 326.447 71.8467 325.974 71.34C325.507 70.8333 325.274 70.22 325.274 69.5C325.274 68.78 325.507 68.1667 325.974 67.66C326.447 67.1533 327.03 66.9 327.724 66.9C328.09 66.9 328.43 66.9833 328.744 67.15C329.064 67.31 329.31 67.5167 329.484 67.77V67H330.344V72H329.484V71.23C329.31 71.4833 329.064 71.6933 328.744 71.86C328.43 72.02 328.09 72.1 327.724 72.1ZM327.854 71.31C328.347 71.31 328.754 71.1367 329.074 70.79C329.394 70.4433 329.554 70.0133 329.554 69.5C329.554 68.9867 329.394 68.5567 329.074 68.21C328.754 67.8633 328.347 67.69 327.854 67.69C327.354 67.69 326.944 67.8633 326.624 68.21C326.304 68.5567 326.144 68.9867 326.144 69.5C326.144 70.0133 326.304 70.4433 326.624 70.79C326.944 71.1367 327.354 71.31 327.854 71.31ZM338.402 72V69.06C338.402 68.6467 338.316 68.3167 338.142 68.07C337.976 67.8167 337.732 67.69 337.412 67.69C337.012 67.69 336.686 67.8467 336.432 68.16C336.186 68.4733 336.056 68.9 336.042 69.44V72H335.182V69.06C335.182 68.64 335.096 68.3067 334.922 68.06C334.756 67.8133 334.516 67.69 334.202 67.69C333.789 67.69 333.456 67.8567 333.202 68.19C332.949 68.5167 332.822 68.96 332.822 69.52V72H331.962V67H332.822V67.77C333.142 67.19 333.646 66.9 334.332 66.9C335.092 66.9 335.606 67.2567 335.872 67.97C336.006 67.6433 336.219 67.3833 336.512 67.19C336.806 66.9967 337.139 66.9 337.512 66.9C338.052 66.9 338.479 67.0833 338.792 67.45C339.106 67.8167 339.262 68.31 339.262 68.93V72H338.402Z" fill="black"/>
<path d="M86.08 65.84C85.1733 66.7467 84.0067 67.2 82.58 67.2C81.1533 67.2 79.9867 66.7467 79.08 65.84C78.1733 64.92 77.72 63.78 77.72 62.42C77.72 61.7667 77.8467 61.1667 78.1 60.62C78.3667 60.0733 78.7733 59.4467 79.32 58.74L84.06 52.8H86.82L82.82 57.84H83.04C84.2 57.84 85.2267 58.28 86.12 59.16C87.0133 60.0267 87.46 61.1067 87.46 62.4C87.46 63.7733 87 64.92 86.08 65.84ZM80.68 64.32C81.1867 64.8267 81.82 65.08 82.58 65.08C83.34 65.08 83.9733 64.8267 84.48 64.32C84.9867 63.8 85.24 63.1667 85.24 62.42C85.24 61.6867 84.98 61.06 84.46 60.54C83.9533 60.02 83.3267 59.76 82.58 59.76C81.8333 59.76 81.2067 60.02 80.7 60.54C80.1933 61.06 79.94 61.6867 79.94 62.42C79.94 63.1667 80.1867 63.8 80.68 64.32ZM92.3491 66.5L90.2091 69.94H88.8491L90.2291 67C89.9491 66.88 89.7157 66.68 89.5291 66.4C89.3424 66.1067 89.2491 65.78 89.2491 65.42C89.2491 64.94 89.4157 64.5333 89.7491 64.2C90.0824 63.8533 90.4891 63.68 90.9691 63.68C91.4491 63.68 91.8557 63.8533 92.1891 64.2C92.5224 64.5333 92.6891 64.94 92.6891 65.42C92.6891 65.8067 92.5757 66.1667 92.3491 66.5ZM99.2206 67.2C97.9273 67.2 96.794 66.7933 95.8206 65.98C94.8473 65.1667 94.3473 64.18 94.3206 63.02H96.5806C96.7273 63.62 97.0406 64.1067 97.5206 64.48C98.014 64.8533 98.5806 65.04 99.2206 65.04C100.007 65.04 100.647 64.7867 101.141 64.28C101.634 63.76 101.881 63.1333 101.881 62.4C101.881 61.64 101.634 61.0133 101.141 60.52C100.661 60.0133 100.041 59.76 99.2806 59.76C98.134 59.76 97.3073 60.2467 96.8006 61.22L94.8206 60.6L96.3406 52.8H103.101V54.94H98.0606L97.4006 58.34C97.9873 57.9267 98.7273 57.72 99.6206 57.72C100.954 57.72 102.034 58.18 102.861 59.1C103.687 60.02 104.101 61.1933 104.101 62.62C104.101 63.9533 103.641 65.0533 102.721 65.92C101.814 66.7733 100.647 67.2 99.2206 67.2ZM114.87 65.68C113.91 66.6933 112.677 67.2 111.17 67.2C109.663 67.2 108.43 66.6933 107.47 65.68C106.51 64.6533 106.03 63.34 106.03 61.74V58.02C106.03 56.42 106.51 55.1133 107.47 54.1C108.43 53.0733 109.663 52.56 111.17 52.56C112.677 52.56 113.91 53.0733 114.87 54.1C115.843 55.1133 116.33 56.42 116.33 58.02V61.74C116.33 63.34 115.843 64.6533 114.87 65.68ZM111.17 65.04C112.063 65.04 112.777 64.7467 113.31 64.16C113.857 63.5733 114.13 62.7667 114.13 61.74V58.02C114.13 56.9933 113.857 56.1867 113.31 55.6C112.777 55.0133 112.063 54.72 111.17 54.72C110.29 54.72 109.577 55.0133 109.03 55.6C108.497 56.1867 108.23 56.9933 108.23 58.02V61.74C108.23 62.7667 108.497 63.5733 109.03 64.16C109.577 64.7467 110.29 65.04 111.17 65.04ZM127.39 65.68C126.43 66.6933 125.196 67.2 123.69 67.2C122.183 67.2 120.95 66.6933 119.99 65.68C119.03 64.6533 118.55 63.34 118.55 61.74V58.02C118.55 56.42 119.03 55.1133 119.99 54.1C120.95 53.0733 122.183 52.56 123.69 52.56C125.196 52.56 126.43 53.0733 127.39 54.1C128.363 55.1133 128.85 56.42 128.85 58.02V61.74C128.85 63.34 128.363 64.6533 127.39 65.68ZM123.69 65.04C124.583 65.04 125.296 64.7467 125.83 64.16C126.376 63.5733 126.65 62.7667 126.65 61.74V58.02C126.65 56.9933 126.376 56.1867 125.83 55.6C125.296 55.0133 124.583 54.72 123.69 54.72C122.81 54.72 122.096 55.0133 121.55 55.6C121.016 56.1867 120.75 56.9933 120.75 58.02V61.74C120.75 62.7667 121.016 63.5733 121.55 64.16C122.096 64.7467 122.81 65.04 123.69 65.04Z" fill="#404143"/>
<path d="M74.76 54.9915H75.647C75.647 53.7334 74.4252 53.1595 73.4296 53.0273V52.1089H72.5426V53.0273C71.547 53.1595 70.3252 53.7334 70.3252 54.9915C70.3252 56.1916 71.5075 56.8156 72.5426 56.9562V59.1603C71.9005 59.049 71.2122 58.7062 71.2122 58.0959H70.3252C70.3252 59.2441 71.4006 59.9226 72.5426 60.0632V60.9786H73.4296V60.0606C74.4252 59.9284 75.647 59.3541 75.647 58.0959C75.647 56.8378 74.4252 56.2639 73.4296 56.1317V53.9272C74.0194 54.0332 74.76 54.3445 74.76 54.9915ZM71.2122 54.9915C71.2122 54.3445 71.9528 54.0332 72.5426 53.9272V56.0555C71.9346 55.9433 71.2122 55.6111 71.2122 54.9915ZM74.76 58.0959C74.76 58.743 74.0194 59.0543 73.4296 59.1603V57.0316C74.0194 57.1376 74.76 57.4489 74.76 58.0959Z" fill="#404143"/>
<rect x="30" y="173" width="353" height="51" rx="10" fill="#FAFAFA"/>
<path d="M56.7 198V190.824H54.228V189.48H60.588V190.824H58.104V198H56.7ZM60.6888 198V192H62.0088V193.068C62.1208 192.732 62.3248 192.46 62.6208 192.252C62.9248 192.044 63.2488 191.94 63.5928 191.94C63.8008 191.94 63.9728 191.956 64.1088 191.988V193.344C63.9168 193.272 63.6968 193.236 63.4488 193.236C63.0488 193.236 62.7088 193.4 62.4288 193.728C62.1488 194.048 62.0088 194.496 62.0088 195.072V198H60.6888ZM67.5082 198.12C66.6922 198.12 66.0042 197.816 65.4442 197.208C64.8922 196.6 64.6162 195.864 64.6162 195C64.6162 194.136 64.8922 193.4 65.4442 192.792C66.0042 192.184 66.6922 191.88 67.5082 191.88C67.9162 191.88 68.2922 191.972 68.6362 192.156C68.9802 192.332 69.2442 192.548 69.4282 192.804V192H70.7482V198H69.4282V197.196C69.2442 197.452 68.9802 197.672 68.6362 197.856C68.2922 198.032 67.9162 198.12 67.5082 198.12ZM66.4642 196.368C66.8002 196.736 67.2282 196.92 67.7482 196.92C68.2682 196.92 68.6962 196.736 69.0322 196.368C69.3682 196 69.5362 195.544 69.5362 195C69.5362 194.456 69.3682 194 69.0322 193.632C68.6962 193.264 68.2682 193.08 67.7482 193.08C67.2282 193.08 66.8002 193.264 66.4642 193.632C66.1282 194 65.9602 194.456 65.9602 195C65.9602 195.544 66.1282 196 66.4642 196.368ZM72.5364 198V192H73.8564V192.816C74.2324 192.192 74.8404 191.88 75.6804 191.88C76.3764 191.88 76.9324 192.108 77.3484 192.564C77.7644 193.02 77.9724 193.628 77.9724 194.388V198H76.6524V194.604C76.6524 194.124 76.5404 193.752 76.3164 193.488C76.0924 193.216 75.7884 193.08 75.4044 193.08C74.9484 193.08 74.5764 193.252 74.2884 193.596C74.0004 193.94 73.8564 194.424 73.8564 195.048V198H72.5364ZM81.5694 198.12C81.0174 198.12 80.5294 198.016 80.1054 197.808C79.6814 197.592 79.3654 197.272 79.1574 196.848L80.1294 196.152C80.2494 196.408 80.4414 196.612 80.7054 196.764C80.9694 196.908 81.2574 196.98 81.5694 196.98C81.8174 196.98 82.0214 196.924 82.1814 196.812C82.3494 196.7 82.4334 196.544 82.4334 196.344C82.4334 196.168 82.3654 196.024 82.2294 195.912C82.1014 195.8 81.8614 195.688 81.5094 195.576L80.9814 195.432C79.9174 195.144 79.3934 194.532 79.4094 193.596C79.4094 193.076 79.6134 192.66 80.0214 192.348C80.4294 192.036 80.9414 191.88 81.5574 191.88C82.4854 191.88 83.1614 192.22 83.5854 192.9L82.6734 193.596C82.3694 193.188 81.9894 192.984 81.5334 192.984C81.3174 192.984 81.1294 193.036 80.9694 193.14C80.8094 193.236 80.7294 193.372 80.7294 193.548C80.7294 193.708 80.7814 193.844 80.8854 193.956C80.9894 194.068 81.1774 194.168 81.4494 194.256L82.0614 194.436C82.6214 194.604 83.0414 194.832 83.3214 195.12C83.6014 195.4 83.7414 195.78 83.7414 196.26C83.7414 196.828 83.5374 197.28 83.1294 197.616C82.7214 197.952 82.2014 198.12 81.5694 198.12ZM86.4307 200.508H85.1107V192H86.4307V192.804C86.6147 192.548 86.8787 192.332 87.2227 192.156C87.5747 191.972 87.9547 191.88 88.3627 191.88C89.1787 191.88 89.8627 192.184 90.4147 192.792C90.9747 193.4 91.2547 194.136 91.2547 195C91.2547 195.864 90.9747 196.6 90.4147 197.208C89.8627 197.816 89.1787 198.12 88.3627 198.12C87.9547 198.12 87.5747 198.032 87.2227 197.856C86.8787 197.672 86.6147 197.452 86.4307 197.196V200.508ZM88.1227 196.92C88.6427 196.92 89.0707 196.736 89.4067 196.368C89.7427 196 89.9107 195.544 89.9107 195C89.9107 194.456 89.7427 194 89.4067 193.632C89.0707 193.264 88.6427 193.08 88.1227 193.08C87.5947 193.08 87.1627 193.264 86.8267 193.632C86.4907 194 86.3227 194.456 86.3227 195C86.3227 195.544 86.4907 196 86.8267 196.368C87.1627 196.736 87.5947 196.92 88.1227 196.92ZM97.5429 197.22C96.9429 197.82 96.1989 198.12 95.3109 198.12C94.4229 198.12 93.6749 197.82 93.0669 197.22C92.4669 196.612 92.1669 195.872 92.1669 195C92.1669 194.128 92.4669 193.392 93.0669 192.792C93.6749 192.184 94.4229 191.88 95.3109 191.88C96.1989 191.88 96.9429 192.184 97.5429 192.792C98.1509 193.392 98.4549 194.128 98.4549 195C98.4549 195.872 98.1509 196.612 97.5429 197.22ZM95.3109 196.896C95.8309 196.896 96.2589 196.716 96.5949 196.356C96.9389 195.988 97.1109 195.536 97.1109 195C97.1109 194.464 96.9389 194.016 96.5949 193.656C96.2589 193.288 95.8309 193.104 95.3109 193.104C94.7829 193.104 94.3469 193.288 94.0029 193.656C93.6669 194.016 93.4989 194.464 93.4989 195C93.4989 195.536 93.6669 195.988 94.0029 196.356C94.3469 196.716 94.7829 196.896 95.3109 196.896ZM99.7825 198V192H101.103V193.068C101.215 192.732 101.419 192.46 101.715 192.252C102.019 192.044 102.343 191.94 102.687 191.94C102.895 191.94 103.067 191.956 103.203 191.988V193.344C103.011 193.272 102.791 193.236 102.543 193.236C102.143 193.236 101.803 193.4 101.523 193.728C101.243 194.048 101.103 194.496 101.103 195.072V198H99.7825ZM106.945 198.06C106.337 198.06 105.841 197.892 105.457 197.556C105.081 197.212 104.893 196.716 104.893 196.068V193.176H103.645V192H104.893V190.332H106.213V192H107.929V193.176H106.213V195.852C106.213 196.22 106.293 196.484 106.453 196.644C106.613 196.796 106.869 196.872 107.221 196.872C107.509 196.872 107.745 196.832 107.929 196.752V197.928C107.641 198.016 107.313 198.06 106.945 198.06ZM111.559 198.12C110.743 198.12 110.055 197.816 109.495 197.208C108.943 196.6 108.667 195.864 108.667 195C108.667 194.136 108.943 193.4 109.495 192.792C110.055 192.184 110.743 191.88 111.559 191.88C111.967 191.88 112.343 191.972 112.687 192.156C113.031 192.332 113.295 192.548 113.479 192.804V192H114.799V198H113.479V197.196C113.295 197.452 113.031 197.672 112.687 197.856C112.343 198.032 111.967 198.12 111.559 198.12ZM110.515 196.368C110.851 196.736 111.279 196.92 111.799 196.92C112.319 196.92 112.747 196.736 113.083 196.368C113.419 196 113.587 195.544 113.587 195C113.587 194.456 113.419 194 113.083 193.632C112.747 193.264 112.319 193.08 111.799 193.08C111.279 193.08 110.851 193.264 110.515 193.632C110.179 194 110.011 194.456 110.011 195C110.011 195.544 110.179 196 110.515 196.368ZM119.191 198.06C118.583 198.06 118.087 197.892 117.703 197.556C117.327 197.212 117.139 196.716 117.139 196.068V193.176H115.891V192H117.139V190.332H118.459V192H120.175V193.176H118.459V195.852C118.459 196.22 118.539 196.484 118.699 196.644C118.859 196.796 119.115 196.872 119.467 196.872C119.755 196.872 119.991 196.832 120.175 196.752V197.928C119.887 198.016 119.559 198.06 119.191 198.06ZM122.087 190.692C121.847 190.692 121.639 190.608 121.463 190.44C121.287 190.264 121.199 190.052 121.199 189.804C121.199 189.564 121.287 189.36 121.463 189.192C121.639 189.016 121.847 188.928 122.087 188.928C122.335 188.928 122.543 189.016 122.711 189.192C122.879 189.36 122.963 189.564 122.963 189.804C122.963 190.052 122.879 190.264 122.711 190.44C122.543 190.608 122.335 190.692 122.087 190.692ZM121.427 198V192H122.747V198H121.427ZM129.465 197.22C128.865 197.82 128.121 198.12 127.233 198.12C126.345 198.12 125.597 197.82 124.989 197.22C124.389 196.612 124.089 195.872 124.089 195C124.089 194.128 124.389 193.392 124.989 192.792C125.597 192.184 126.345 191.88 127.233 191.88C128.121 191.88 128.865 192.184 129.465 192.792C130.073 193.392 130.377 194.128 130.377 195C130.377 195.872 130.073 196.612 129.465 197.22ZM127.233 196.896C127.753 196.896 128.181 196.716 128.517 196.356C128.861 195.988 129.033 195.536 129.033 195C129.033 194.464 128.861 194.016 128.517 193.656C128.181 193.288 127.753 193.104 127.233 193.104C126.705 193.104 126.269 193.288 125.925 193.656C125.589 194.016 125.421 194.464 125.421 195C125.421 195.536 125.589 195.988 125.925 196.356C126.269 196.716 126.705 196.896 127.233 196.896ZM131.704 198V192H133.024V192.816C133.4 192.192 134.008 191.88 134.848 191.88C135.544 191.88 136.1 192.108 136.516 192.564C136.932 193.02 137.14 193.628 137.14 194.388V198H135.82V194.604C135.82 194.124 135.708 193.752 135.484 193.488C135.26 193.216 134.956 193.08 134.572 193.08C134.116 193.08 133.744 193.252 133.456 193.596C133.168 193.94 133.024 194.424 133.024 195.048V198H131.704Z" fill="#404143"/>
<rect x="320" y="184" width="49" height="31" rx="15.5" fill="#BBBEF8"/>
<path d="M333.108 203.004V204H327.588V203.592C327.588 203.296 327.632 203.016 327.72 202.752C327.816 202.48 327.92 202.252 328.032 202.068C328.144 201.884 328.32 201.68 328.56 201.456C328.8 201.224 328.988 201.056 329.124 200.952C329.26 200.84 329.488 200.672 329.808 200.448C330.128 200.216 330.34 200.064 330.444 199.992C331.012 199.576 331.404 199.228 331.62 198.948C331.844 198.66 331.956 198.284 331.956 197.82C331.956 197.372 331.812 197.016 331.524 196.752C331.236 196.48 330.86 196.344 330.396 196.344C329.908 196.344 329.492 196.492 329.148 196.788C328.804 197.084 328.632 197.496 328.632 198.024H327.576C327.576 197.224 327.84 196.576 328.368 196.08C328.904 195.584 329.576 195.336 330.384 195.336C331.136 195.336 331.76 195.552 332.256 195.984C332.76 196.416 333.012 197.032 333.012 197.832C333.012 198.44 332.864 198.96 332.568 199.392C332.272 199.816 331.764 200.288 331.044 200.808C330.908 200.904 330.716 201.04 330.468 201.216C330.22 201.384 330.028 201.52 329.892 201.624C329.756 201.728 329.604 201.856 329.436 202.008C329.276 202.152 329.148 202.308 329.052 202.476C328.964 202.636 328.9 202.812 328.86 203.004H333.108ZM337.423 204.12C336.535 204.12 335.811 203.824 335.251 203.232C334.691 202.632 334.411 201.86 334.411 200.916V198.54C334.411 197.596 334.691 196.828 335.251 196.236C335.819 195.636 336.543 195.336 337.423 195.336C338.303 195.336 339.027 195.636 339.595 196.236C340.163 196.836 340.447 197.604 340.447 198.54V200.916C340.447 201.86 340.163 202.632 339.595 203.232C339.027 203.824 338.303 204.12 337.423 204.12ZM337.423 203.112C338.015 203.112 338.495 202.916 338.863 202.524C339.231 202.132 339.415 201.596 339.415 200.916V198.54C339.415 197.86 339.231 197.324 338.863 196.932C338.495 196.54 338.015 196.344 337.423 196.344C336.839 196.344 336.363 196.54 335.995 196.932C335.627 197.324 335.443 197.86 335.443 198.54V200.916C335.443 201.596 335.627 202.132 335.995 202.524C336.363 202.916 336.839 203.112 337.423 203.112ZM344.972 204H343.856L349.256 195.48H350.372L344.972 204ZM350.312 204.096C349.656 204.096 349.096 203.864 348.632 203.4C348.176 202.936 347.948 202.38 347.948 201.732C347.948 201.076 348.176 200.52 348.632 200.064C349.096 199.6 349.656 199.368 350.312 199.368C350.96 199.368 351.516 199.6 351.98 200.064C352.444 200.52 352.676 201.076 352.676 201.732C352.676 202.38 352.444 202.936 351.98 203.4C351.516 203.864 350.96 204.096 350.312 204.096ZM350.312 203.16C350.696 203.16 351.028 203.02 351.308 202.74C351.588 202.452 351.728 202.116 351.728 201.732C351.728 201.348 351.588 201.016 351.308 200.736C351.028 200.448 350.696 200.304 350.312 200.304C349.912 200.304 349.576 200.444 349.304 200.724C349.032 201.004 348.896 201.34 348.896 201.732C348.896 202.124 349.032 202.46 349.304 202.74C349.576 203.02 349.912 203.16 350.312 203.16ZM343.916 200.112C343.26 200.112 342.7 199.88 342.236 199.416C341.78 198.952 341.552 198.396 341.552 197.748C341.552 197.092 341.78 196.536 342.236 196.08C342.7 195.616 343.26 195.384 343.916 195.384C344.564 195.384 345.12 195.616 345.584 196.08C346.048 196.536 346.28 197.092 346.28 197.748C346.28 198.396 346.048 198.952 345.584 199.416C345.12 199.88 344.564 200.112 343.916 200.112ZM343.916 199.176C344.3 199.176 344.632 199.036 344.912 198.756C345.192 198.468 345.332 198.132 345.332 197.748C345.332 197.364 345.192 197.032 344.912 196.752C344.632 196.464 344.3 196.32 343.916 196.32C343.516 196.32 343.18 196.46 342.908 196.74C342.636 197.02 342.5 197.356 342.5 197.748C342.5 198.14 342.636 198.476 342.908 198.756C343.18 199.036 343.516 199.176 343.916 199.176Z" fill="#1D26D7"/>
<rect x="356" y="195" width="9" height="9" rx="4.5" fill="#1D26D7"/>
<path d="M361.781 198.443H362.281C362.281 197.734 361.592 197.411 361.031 197.336V196.818H360.531V197.336C359.97 197.411 359.281 197.734 359.281 198.443C359.281 199.12 359.948 199.472 360.531 199.551V200.793C360.169 200.731 359.781 200.537 359.781 200.193H359.281C359.281 200.841 359.887 201.223 360.531 201.302V201.818H361.031V201.301C361.592 201.226 362.281 200.903 362.281 200.193C362.281 199.484 361.592 199.161 361.031 199.086V197.843C361.364 197.903 361.781 198.079 361.781 198.443ZM359.781 198.443C359.781 198.079 360.199 197.903 360.531 197.843V199.043C360.188 198.98 359.781 198.793 359.781 198.443ZM361.781 200.193C361.781 200.558 361.364 200.734 361.031 200.793V199.593C361.364 199.653 361.781 199.829 361.781 200.193Z" fill="white"/>
<rect x="278" y="184" width="30" height="31" rx="15" fill="white"/>
<path d="M290.249 204.917C289.951 204.917 289.696 204.811 289.485 204.599C289.273 204.387 289.166 204.131 289.166 203.833V198.417C289.166 198.119 289.272 197.864 289.485 197.652C289.697 197.44 289.952 197.334 290.249 197.333H290.791V196.25C290.791 195.501 291.055 194.862 291.583 194.334C292.112 193.806 292.75 193.542 293.499 193.542C294.248 193.541 294.887 193.805 295.416 194.334C295.944 194.863 296.208 195.501 296.208 196.25V197.333H296.749C297.047 197.333 297.302 197.439 297.515 197.652C297.727 197.864 297.833 198.119 297.833 198.417V203.833C297.833 204.131 297.727 204.386 297.515 204.599C297.303 204.811 297.048 204.917 296.749 204.917H290.249ZM293.499 202.208C293.797 202.208 294.052 202.102 294.265 201.89C294.477 201.678 294.583 201.423 294.583 201.125C294.582 200.827 294.476 200.572 294.265 200.36C294.053 200.148 293.798 200.042 293.499 200.042C293.201 200.041 292.946 200.147 292.735 200.36C292.523 200.573 292.417 200.828 292.416 201.125C292.415 201.422 292.521 201.677 292.735 201.89C292.948 202.104 293.203 202.21 293.499 202.208ZM291.874 197.333H295.124V196.25C295.124 195.798 294.966 195.415 294.65 195.099C294.334 194.783 293.951 194.625 293.499 194.625C293.048 194.625 292.664 194.783 292.348 195.099C292.032 195.415 291.874 195.798 291.874 196.25V197.333Z" fill="#666767"/>
<path d="M63.48 217V210.99H62.05L62.89 209.9H64.58V217H63.48ZM67.487 216.75L66.417 218.47H65.737L66.427 217C66.287 216.94 66.1704 216.84 66.077 216.7C65.9837 216.553 65.937 216.39 65.937 216.21C65.937 215.97 66.0204 215.767 66.187 215.6C66.3537 215.427 66.557 215.34 66.797 215.34C67.037 215.34 67.2404 215.427 67.407 215.6C67.5737 215.767 67.657 215.97 67.657 216.21C67.657 216.403 67.6004 216.583 67.487 216.75ZM71.1128 217.1C70.3995 217.1 69.7928 216.887 69.2928 216.46C68.7995 216.033 68.5461 215.47 68.5328 214.77H69.6328C69.6595 215.15 69.8095 215.453 70.0828 215.68C70.3628 215.907 70.7061 216.02 71.1128 216.02C71.4795 216.02 71.7795 215.923 72.0128 215.73C72.2528 215.537 72.3761 215.27 72.3828 214.93C72.3828 214.557 72.2595 214.277 72.0128 214.09C71.7728 213.897 71.4395 213.8 71.0128 213.8H70.4528V212.86H71.0128C71.3661 212.86 71.6461 212.767 71.8528 212.58C72.0661 212.393 72.1761 212.15 72.1828 211.85C72.1828 211.557 72.0761 211.32 71.8628 211.14C71.6495 210.953 71.3861 210.86 71.0728 210.86C70.6995 210.86 70.3895 210.97 70.1428 211.19C69.8961 211.403 69.7728 211.697 69.7728 212.07H68.6628C68.6628 211.377 68.8961 210.823 69.3628 210.41C69.8361 209.99 70.4061 209.78 71.0728 209.78C71.7328 209.78 72.2661 209.967 72.6728 210.34C73.0861 210.713 73.2928 211.193 73.2928 211.78C73.2928 212.107 73.2095 212.41 73.0428 212.69C72.8761 212.963 72.6695 213.173 72.4228 213.32C72.7495 213.46 73.0095 213.677 73.2028 213.97C73.3961 214.263 73.4928 214.607 73.4928 215C73.4928 215.62 73.2695 216.127 72.8228 216.52C72.3828 216.907 71.8128 217.1 71.1128 217.1ZM78.9527 216.34C78.4727 216.847 77.856 217.1 77.1027 217.1C76.3493 217.1 75.7327 216.847 75.2527 216.34C74.7727 215.827 74.5327 215.17 74.5327 214.37V212.51C74.5327 211.71 74.7727 211.057 75.2527 210.55C75.7327 210.037 76.3493 209.78 77.1027 209.78C77.856 209.78 78.4727 210.037 78.9527 210.55C79.4393 211.057 79.6827 211.71 79.6827 212.51V214.37C79.6827 215.17 79.4393 215.827 78.9527 216.34ZM77.1027 216.02C77.5493 216.02 77.906 215.873 78.1727 215.58C78.446 215.287 78.5827 214.883 78.5827 214.37V212.51C78.5827 211.997 78.446 211.593 78.1727 211.3C77.906 211.007 77.5493 210.86 77.1027 210.86C76.6627 210.86 76.306 211.007 76.0327 211.3C75.766 211.593 75.6327 211.997 75.6327 212.51V214.37C75.6327 214.883 75.766 215.287 76.0327 215.58C76.306 215.873 76.6627 216.02 77.1027 216.02ZM85.2124 216.34C84.7324 216.847 84.1158 217.1 83.3624 217.1C82.6091 217.1 81.9924 216.847 81.5124 216.34C81.0324 215.827 80.7924 215.17 80.7924 214.37V212.51C80.7924 211.71 81.0324 211.057 81.5124 210.55C81.9924 210.037 82.6091 209.78 83.3624 209.78C84.1158 209.78 84.7324 210.037 85.2124 210.55C85.6991 211.057 85.9424 211.71 85.9424 212.51V214.37C85.9424 215.17 85.6991 215.827 85.2124 216.34ZM83.3624 216.02C83.8091 216.02 84.1658 215.873 84.4324 215.58C84.7058 215.287 84.8424 214.883 84.8424 214.37V212.51C84.8424 211.997 84.7058 211.593 84.4324 211.3C84.1658 211.007 83.8091 210.86 83.3624 210.86C82.9224 210.86 82.5658 211.007 82.2924 211.3C82.0258 211.593 81.8924 211.997 81.8924 212.51V214.37C81.8924 214.883 82.0258 215.287 82.2924 215.58C82.5658 215.873 82.9224 216.02 83.3624 216.02Z" fill="#1D26D7"/>
<path d="M59.5843 211.992H60.4712C60.4712 210.733 59.2494 210.16 58.2538 210.027V209.109H57.3668V210.027C56.3712 210.16 55.1494 210.733 55.1494 211.992C55.1494 213.192 56.3317 213.816 57.3668 213.956V216.16C56.7247 216.049 56.0364 215.706 56.0364 215.096H55.1494C55.1494 216.244 56.2249 216.923 57.3668 217.063V217.979H58.2538V217.061C59.2494 216.928 60.4712 216.354 60.4712 215.096C60.4712 213.838 59.2494 213.264 58.2538 213.132V210.927C58.8436 211.033 59.5843 211.344 59.5843 211.992ZM56.0364 211.992C56.0364 211.344 56.777 211.033 57.3668 210.927V213.055C56.7588 212.943 56.0364 212.611 56.0364 211.992ZM59.5843 215.096C59.5843 215.743 58.8436 216.054 58.2538 216.16V214.032C58.8436 214.138 59.5843 214.449 59.5843 215.096Z" fill="#1D26D7"/>
<rect x="30" y="118" width="353" height="51" rx="10" fill="#FAFAFA"/>
<rect x="320" y="129" width="49" height="31" rx="15.5" fill="#BFFBDC"/>
<path d="M330.564 149.12C329.716 149.12 328.996 148.864 328.404 148.352C327.82 147.832 327.528 147.184 327.528 146.408H328.572C328.604 146.912 328.808 147.324 329.184 147.644C329.56 147.956 330.02 148.112 330.564 148.112C331.06 148.112 331.472 147.976 331.8 147.704C332.128 147.432 332.292 147.056 332.292 146.576C332.292 146.064 332.124 145.68 331.788 145.424C331.46 145.168 331.008 145.04 330.432 145.04H329.796V144.092H330.48C330.936 144.092 331.308 143.964 331.596 143.708C331.892 143.452 332.044 143.12 332.052 142.712C332.052 142.312 331.904 141.984 331.608 141.728C331.32 141.472 330.956 141.344 330.516 141.344C330.012 141.344 329.588 141.492 329.244 141.788C328.9 142.084 328.728 142.496 328.728 143.024H327.672C327.672 142.208 327.944 141.556 328.488 141.068C329.032 140.58 329.708 140.336 330.516 140.336C331.26 140.336 331.876 140.552 332.364 140.984C332.86 141.408 333.108 141.972 333.108 142.676C333.1 143.084 332.988 143.452 332.772 143.78C332.564 144.108 332.292 144.36 331.956 144.536C332.388 144.712 332.728 144.984 332.976 145.352C333.224 145.712 333.348 146.132 333.348 146.612C333.348 147.356 333.088 147.96 332.568 148.424C332.048 148.888 331.38 149.12 330.564 149.12ZM337.693 149.12C336.805 149.12 336.081 148.824 335.521 148.232C334.961 147.632 334.681 146.86 334.681 145.916V143.54C334.681 142.596 334.961 141.828 335.521 141.236C336.089 140.636 336.813 140.336 337.693 140.336C338.573 140.336 339.297 140.636 339.865 141.236C340.433 141.836 340.717 142.604 340.717 143.54V145.916C340.717 146.86 340.433 147.632 339.865 148.232C339.297 148.824 338.573 149.12 337.693 149.12ZM337.693 148.112C338.285 148.112 338.765 147.916 339.133 147.524C339.501 147.132 339.685 146.596 339.685 145.916V143.54C339.685 142.86 339.501 142.324 339.133 141.932C338.765 141.54 338.285 141.344 337.693 141.344C337.109 141.344 336.633 141.54 336.265 141.932C335.897 142.324 335.713 142.86 335.713 143.54V145.916C335.713 146.596 335.897 147.132 336.265 147.524C336.633 147.916 337.109 148.112 337.693 148.112ZM345.242 149H344.126L349.526 140.48H350.642L345.242 149ZM350.582 149.096C349.926 149.096 349.366 148.864 348.902 148.4C348.446 147.936 348.217 147.38 348.217 146.732C348.217 146.076 348.446 145.52 348.902 145.064C349.366 144.6 349.926 144.368 350.582 144.368C351.23 144.368 351.786 144.6 352.25 145.064C352.714 145.52 352.946 146.076 352.946 146.732C352.946 147.38 352.714 147.936 352.25 148.4C351.786 148.864 351.23 149.096 350.582 149.096ZM350.582 148.16C350.966 148.16 351.298 148.02 351.578 147.74C351.858 147.452 351.998 147.116 351.998 146.732C351.998 146.348 351.858 146.016 351.578 145.736C351.298 145.448 350.966 145.304 350.582 145.304C350.182 145.304 349.846 145.444 349.574 145.724C349.302 146.004 349.166 146.34 349.166 146.732C349.166 147.124 349.302 147.46 349.574 147.74C349.846 148.02 350.182 148.16 350.582 148.16ZM344.186 145.112C343.53 145.112 342.97 144.88 342.506 144.416C342.05 143.952 341.822 143.396 341.822 142.748C341.822 142.092 342.05 141.536 342.506 141.08C342.97 140.616 343.53 140.384 344.186 140.384C344.834 140.384 345.39 140.616 345.854 141.08C346.318 141.536 346.55 142.092 346.55 142.748C346.55 143.396 346.318 143.952 345.854 144.416C345.39 144.88 344.834 145.112 344.186 145.112ZM344.186 144.176C344.57 144.176 344.902 144.036 345.182 143.756C345.462 143.468 345.602 143.132 345.602 142.748C345.602 142.364 345.462 142.032 345.182 141.752C344.902 141.464 344.57 141.32 344.186 141.32C343.786 141.32 343.45 141.46 343.178 141.74C342.906 142.02 342.77 142.356 342.77 142.748C342.77 143.14 342.906 143.476 343.178 143.756C343.45 144.036 343.786 144.176 344.186 144.176Z" fill="#1DD777"/>
<rect x="356" y="140" width="9" height="9" rx="4.5" fill="#009A49"/>
<path d="M361.5 143.625H362C362 142.916 361.311 142.592 360.75 142.518V142H360.25V142.518C359.689 142.592 359 142.916 359 143.625C359 144.302 359.666 144.653 360.25 144.733V145.975C359.888 145.912 359.5 145.719 359.5 145.375H359C359 146.022 359.606 146.405 360.25 146.484V147H360.75V146.483C361.311 146.408 362 146.084 362 145.375C362 144.666 361.311 144.342 360.75 144.268V143.025C361.082 143.085 361.5 143.26 361.5 143.625ZM359.5 143.625C359.5 143.26 359.917 143.085 360.25 143.025V144.225C359.907 144.161 359.5 143.974 359.5 143.625ZM361.5 145.375C361.5 145.74 361.082 145.915 360.75 145.975V144.775C361.082 144.835 361.5 145.01 361.5 145.375Z" fill="white"/>
<rect x="278" y="129" width="30" height="31" rx="15" fill="white"/>
<path d="M290.249 149.917C289.951 149.917 289.696 149.811 289.485 149.599C289.273 149.387 289.166 149.131 289.166 148.833V143.417C289.166 143.119 289.272 142.864 289.485 142.652C289.697 142.44 289.952 142.334 290.249 142.333H290.791V141.25C290.791 140.501 291.055 139.862 291.583 139.334C292.112 138.806 292.75 138.542 293.499 138.542C294.248 138.541 294.887 138.805 295.416 139.334C295.944 139.863 296.208 140.501 296.208 141.25V142.333H296.749C297.047 142.333 297.302 142.439 297.515 142.652C297.727 142.864 297.833 143.119 297.833 143.417V148.833C297.833 149.131 297.727 149.386 297.515 149.599C297.303 149.811 297.048 149.917 296.749 149.917H290.249ZM293.499 147.208C293.797 147.208 294.052 147.102 294.265 146.89C294.477 146.678 294.583 146.423 294.583 146.125C294.582 145.827 294.476 145.572 294.265 145.36C294.053 145.148 293.798 145.042 293.499 145.042C293.201 145.041 292.946 145.147 292.735 145.36C292.523 145.573 292.417 145.828 292.416 146.125C292.415 146.422 292.521 146.677 292.735 146.89C292.948 147.104 293.203 147.21 293.499 147.208ZM291.874 142.333H295.124V141.25C295.124 140.798 294.966 140.415 294.65 140.099C294.334 139.783 293.951 139.625 293.499 139.625C293.048 139.625 292.664 139.783 292.348 140.099C292.032 140.415 291.874 140.798 291.874 141.25V142.333Z" fill="#666767"/>
<path d="M60.256 145L56.084 135.06H57.876L60.97 142.494L64.05 135.06H65.856L61.684 145H60.256ZM68.8884 145.14C67.9364 145.14 67.1338 144.785 66.4804 144.076C65.8364 143.367 65.5144 142.508 65.5144 141.5C65.5144 140.492 65.8364 139.633 66.4804 138.924C67.1338 138.215 67.9364 137.86 68.8884 137.86C69.3644 137.86 69.8031 137.967 70.2044 138.182C70.6058 138.387 70.9138 138.639 71.1284 138.938V138H72.6684V145H71.1284V144.062C70.9138 144.361 70.6058 144.617 70.2044 144.832C69.8031 145.037 69.3644 145.14 68.8884 145.14ZM67.6704 143.096C68.0624 143.525 68.5618 143.74 69.1684 143.74C69.7751 143.74 70.2744 143.525 70.6664 143.096C71.0584 142.667 71.2544 142.135 71.2544 141.5C71.2544 140.865 71.0584 140.333 70.6664 139.904C70.2744 139.475 69.7751 139.26 69.1684 139.26C68.5618 139.26 68.0624 139.475 67.6704 139.904C67.2784 140.333 67.0824 140.865 67.0824 141.5C67.0824 142.135 67.2784 142.667 67.6704 143.096ZM77.9468 145.14C76.8921 145.14 76.0101 144.795 75.3008 144.104C74.6008 143.404 74.2508 142.536 74.2508 141.5C74.2508 140.464 74.6008 139.601 75.3008 138.91C76.0101 138.21 76.8921 137.86 77.9468 137.86C78.6654 137.86 79.3094 138.033 79.8788 138.378C80.4574 138.723 80.9008 139.195 81.2088 139.792L79.8648 140.52C79.6874 140.147 79.4308 139.848 79.0948 139.624C78.7588 139.4 78.3761 139.288 77.9468 139.288C77.3308 139.288 76.8221 139.503 76.4208 139.932C76.0194 140.352 75.8188 140.875 75.8188 141.5C75.8188 142.125 76.0194 142.653 76.4208 143.082C76.8221 143.502 77.3308 143.712 77.9468 143.712C78.3761 143.712 78.7588 143.6 79.0948 143.376C79.4308 143.152 79.6874 142.853 79.8648 142.48L81.2088 143.208C80.9008 143.805 80.4574 144.277 79.8788 144.622C79.3094 144.967 78.6654 145.14 77.9468 145.14ZM85.4861 145.14C84.5341 145.14 83.7314 144.785 83.0781 144.076C82.4341 143.367 82.1121 142.508 82.1121 141.5C82.1121 140.492 82.4341 139.633 83.0781 138.924C83.7314 138.215 84.5341 137.86 85.4861 137.86C85.9621 137.86 86.4007 137.967 86.8021 138.182C87.2034 138.387 87.5114 138.639 87.7261 138.938V138H89.2661V145H87.7261V144.062C87.5114 144.361 87.2034 144.617 86.8021 144.832C86.4007 145.037 85.9621 145.14 85.4861 145.14ZM84.2681 143.096C84.6601 143.525 85.1594 143.74 85.7661 143.74C86.3727 143.74 86.8721 143.525 87.2641 143.096C87.6561 142.667 87.8521 142.135 87.8521 141.5C87.8521 140.865 87.6561 140.333 87.2641 139.904C86.8721 139.475 86.3727 139.26 85.7661 139.26C85.1594 139.26 84.6601 139.475 84.2681 139.904C83.8761 140.333 83.6801 140.865 83.6801 141.5C83.6801 142.135 83.8761 142.667 84.2681 143.096ZM94.3904 145.07C93.6811 145.07 93.1024 144.874 92.6544 144.482C92.2157 144.081 91.9964 143.502 91.9964 142.746V139.372H90.5404V138H91.9964V136.054H93.5364V138H95.5384V139.372H93.5364V142.494C93.5364 142.923 93.6297 143.231 93.8164 143.418C94.0031 143.595 94.3017 143.684 94.7124 143.684C95.0484 143.684 95.3237 143.637 95.5384 143.544V144.916C95.2024 145.019 94.8197 145.07 94.3904 145.07ZM97.7689 136.474C97.4889 136.474 97.2462 136.376 97.0409 136.18C96.8356 135.975 96.7329 135.727 96.7329 135.438C96.7329 135.158 96.8356 134.92 97.0409 134.724C97.2462 134.519 97.4889 134.416 97.7689 134.416C98.0582 134.416 98.3009 134.519 98.4969 134.724C98.6929 134.92 98.7909 135.158 98.7909 135.438C98.7909 135.727 98.6929 135.975 98.4969 136.18C98.3009 136.376 98.0582 136.474 97.7689 136.474ZM96.9989 145V138H98.5389V145H96.9989ZM106.376 144.09C105.676 144.79 104.808 145.14 103.772 145.14C102.736 145.14 101.864 144.79 101.154 144.09C100.454 143.381 100.104 142.517 100.104 141.5C100.104 140.483 100.454 139.624 101.154 138.924C101.864 138.215 102.736 137.86 103.772 137.86C104.808 137.86 105.676 138.215 106.376 138.924C107.086 139.624 107.44 140.483 107.44 141.5C107.44 142.517 107.086 143.381 106.376 144.09ZM103.772 143.712C104.379 143.712 104.878 143.502 105.27 143.082C105.672 142.653 105.872 142.125 105.872 141.5C105.872 140.875 105.672 140.352 105.27 139.932C104.878 139.503 104.379 139.288 103.772 139.288C103.156 139.288 102.648 139.503 102.246 139.932C101.854 140.352 101.658 140.875 101.658 141.5C101.658 142.125 101.854 142.653 102.246 143.082C102.648 143.502 103.156 143.712 103.772 143.712ZM108.989 145V138H110.529V138.952C110.968 138.224 111.677 137.86 112.657 137.86C113.469 137.86 114.118 138.126 114.603 138.658C115.088 139.19 115.331 139.899 115.331 140.786V145H113.791V141.038C113.791 140.478 113.66 140.044 113.399 139.736C113.138 139.419 112.783 139.26 112.335 139.26C111.803 139.26 111.369 139.461 111.033 139.862C110.697 140.263 110.529 140.828 110.529 141.556V145H108.989Z" fill="#404143"/>
<path d="M66.48 161V154.99H65.05L65.89 153.9H67.58V161H66.48ZM70.487 160.75L69.417 162.47H68.737L69.427 161C69.287 160.94 69.1704 160.84 69.077 160.7C68.9837 160.553 68.937 160.39 68.937 160.21C68.937 159.97 69.0204 159.767 69.187 159.6C69.3537 159.427 69.557 159.34 69.797 159.34C70.037 159.34 70.2404 159.427 70.407 159.6C70.5737 159.767 70.657 159.97 70.657 160.21C70.657 160.403 70.6004 160.583 70.487 160.75ZM71.7454 161L73.7654 158.46H73.6554C73.0754 158.46 72.5587 158.243 72.1054 157.81C71.6587 157.37 71.4354 156.827 71.4354 156.18C71.4354 155.5 71.6621 154.93 72.1154 154.47C72.5754 154.01 73.1621 153.78 73.8754 153.78C74.5887 153.78 75.1721 154.01 75.6254 154.47C76.0854 154.93 76.3154 155.497 76.3154 156.17C76.3154 156.51 76.2487 156.813 76.1154 157.08C75.9887 157.347 75.7854 157.66 75.5054 158.02L73.1254 161H71.7454ZM72.9254 157.13C73.1787 157.383 73.4954 157.51 73.8754 157.51C74.2554 157.51 74.5687 157.383 74.8154 157.13C75.0687 156.87 75.1954 156.55 75.1954 156.17C75.1954 155.803 75.0687 155.49 74.8154 155.23C74.5621 154.97 74.2487 154.84 73.8754 154.84C73.5021 154.84 73.1887 154.97 72.9354 155.23C72.6821 155.49 72.5554 155.803 72.5554 156.17C72.5554 156.55 72.6787 156.87 72.9254 157.13ZM79.4209 161.1C78.7742 161.1 78.2075 160.897 77.7209 160.49C77.2342 160.083 76.9842 159.59 76.9709 159.01H78.1009C78.1742 159.31 78.3309 159.553 78.5709 159.74C78.8175 159.927 79.1009 160.02 79.4209 160.02C79.8142 160.02 80.1342 159.893 80.3809 159.64C80.6275 159.38 80.7509 159.067 80.7509 158.7C80.7509 158.32 80.6275 158.007 80.3809 157.76C80.1409 157.507 79.8309 157.38 79.4509 157.38C78.8775 157.38 78.4642 157.623 78.2109 158.11L77.2209 157.8L77.9809 153.9H81.3609V154.97H78.8409L78.5109 156.67C78.8042 156.463 79.1742 156.36 79.6209 156.36C80.2875 156.36 80.8275 156.59 81.2409 157.05C81.6542 157.51 81.8609 158.097 81.8609 158.81C81.8609 159.477 81.6309 160.027 81.1709 160.46C80.7175 160.887 80.1342 161.1 79.4209 161.1ZM87.2456 160.34C86.7656 160.847 86.149 161.1 85.3956 161.1C84.6423 161.1 84.0256 160.847 83.5456 160.34C83.0656 159.827 82.8256 159.17 82.8256 158.37V156.51C82.8256 155.71 83.0656 155.057 83.5456 154.55C84.0256 154.037 84.6423 153.78 85.3956 153.78C86.149 153.78 86.7656 154.037 87.2456 154.55C87.7323 155.057 87.9756 155.71 87.9756 156.51V158.37C87.9756 159.17 87.7323 159.827 87.2456 160.34ZM85.3956 160.02C85.8423 160.02 86.199 159.873 86.4656 159.58C86.739 159.287 86.8756 158.883 86.8756 158.37V156.51C86.8756 155.997 86.739 155.593 86.4656 155.3C86.199 155.007 85.8423 154.86 85.3956 154.86C84.9556 154.86 84.599 155.007 84.3256 155.3C84.059 155.593 83.9256 155.997 83.9256 156.51V158.37C83.9256 158.883 84.059 159.287 84.3256 159.58C84.599 159.873 84.9556 160.02 85.3956 160.02Z" fill="#1DD777"/>
<path d="M62.5843 155.992H63.4712C63.4712 154.733 62.2494 154.16 61.2538 154.027V153.109H60.3668V154.027C59.3712 154.16 58.1494 154.733 58.1494 155.992C58.1494 157.192 59.3317 157.816 60.3668 157.956V160.16C59.7247 160.049 59.0364 159.706 59.0364 159.096H58.1494C58.1494 160.244 59.2249 160.923 60.3668 161.063V161.979H61.2538V161.061C62.2494 160.928 63.4712 160.354 63.4712 159.096C63.4712 157.838 62.2494 157.264 61.2538 157.132V154.927C61.8436 155.033 62.5843 155.344 62.5843 155.992ZM59.0364 155.992C59.0364 155.344 59.777 155.033 60.3668 154.927V157.055C59.7588 156.943 59.0364 156.611 59.0364 155.992ZM62.5843 159.096C62.5843 159.743 61.8436 160.054 61.2538 160.16V158.032C61.8436 158.138 62.5843 158.449 62.5843 159.096Z" fill="#1DD777"/>
<path d="M49.42 102.144C48.74 102.144 48.128 102.004 47.584 101.724C47.04 101.444 46.64 101.072 46.384 100.608L47.488 99.732C47.96 100.46 48.62 100.824 49.468 100.824C49.876 100.824 50.208 100.728 50.464 100.536C50.72 100.336 50.848 100.08 50.848 99.768C50.848 99.2 50.444 98.768 49.636 98.472L48.7 98.136C48.012 97.888 47.504 97.572 47.176 97.188C46.848 96.796 46.684 96.312 46.684 95.736C46.684 95.008 46.944 94.428 47.464 93.996C47.984 93.556 48.648 93.336 49.456 93.336C50.536 93.336 51.396 93.724 52.036 94.5L51.064 95.448C50.624 94.92 50.084 94.656 49.444 94.656C49.068 94.656 48.748 94.744 48.484 94.92C48.228 95.096 48.1 95.336 48.1 95.64C48.1 95.936 48.196 96.172 48.388 96.348C48.588 96.516 48.924 96.688 49.396 96.864L50.26 97.188C50.916 97.436 51.416 97.76 51.76 98.16C52.104 98.56 52.272 99.068 52.264 99.684C52.264 100.42 52 101.016 51.472 101.472C50.944 101.92 50.26 102.144 49.42 102.144ZM54.876 104.508H53.556V96H54.876V96.804C55.06 96.548 55.324 96.332 55.668 96.156C56.02 95.972 56.4 95.88 56.808 95.88C57.624 95.88 58.308 96.184 58.86 96.792C59.42 97.4 59.7 98.136 59.7 99C59.7 99.864 59.42 100.6 58.86 101.208C58.308 101.816 57.624 102.12 56.808 102.12C56.4 102.12 56.02 102.032 55.668 101.856C55.324 101.672 55.06 101.452 54.876 101.196V104.508ZM56.568 100.92C57.088 100.92 57.516 100.736 57.852 100.368C58.188 100 58.356 99.544 58.356 99C58.356 98.456 58.188 98 57.852 97.632C57.516 97.264 57.088 97.08 56.568 97.08C56.04 97.08 55.608 97.264 55.272 97.632C54.936 98 54.768 98.456 54.768 99C54.768 99.544 54.936 100 55.272 100.368C55.608 100.736 56.04 100.92 56.568 100.92ZM61.0443 102V93H62.3643V102H61.0443ZM64.798 94.692C64.558 94.692 64.35 94.608 64.174 94.44C63.998 94.264 63.91 94.052 63.91 93.804C63.91 93.564 63.998 93.36 64.174 93.192C64.35 93.016 64.558 92.928 64.798 92.928C65.046 92.928 65.254 93.016 65.422 93.192C65.59 93.36 65.674 93.564 65.674 93.804C65.674 94.052 65.59 94.264 65.422 94.44C65.254 94.608 65.046 94.692 64.798 94.692ZM64.138 102V96H65.458V102H64.138ZM69.8358 102.06C69.2278 102.06 68.7318 101.892 68.3478 101.556C67.9718 101.212 67.7838 100.716 67.7838 100.068V97.176H66.5358V96H67.7838V94.332H69.1038V96H70.8198V97.176H69.1038V99.852C69.1038 100.22 69.1838 100.484 69.3438 100.644C69.5038 100.796 69.7598 100.872 70.1118 100.872C70.3998 100.872 70.6358 100.832 70.8198 100.752V101.928C70.5318 102.016 70.2038 102.06 69.8358 102.06ZM75.0518 102V93.48H77.6678C78.9318 93.48 79.9918 93.888 80.8478 94.704C81.7038 95.52 82.1318 96.532 82.1318 97.74C82.1318 98.948 81.7038 99.96 80.8478 100.776C79.9918 101.592 78.9318 102 77.6678 102H75.0518ZM76.4558 100.692H77.6678C78.5638 100.692 79.2918 100.412 79.8518 99.852C80.4198 99.292 80.7038 98.588 80.7038 97.74C80.7038 96.892 80.4198 96.188 79.8518 95.628C79.2918 95.068 78.5638 94.788 77.6678 94.788H76.4558V100.692ZM86.2328 102.12C85.3208 102.12 84.5688 101.828 83.9768 101.244C83.3928 100.66 83.1008 99.912 83.1008 99C83.1008 98.112 83.3968 97.372 83.9888 96.78C84.5808 96.18 85.3288 95.88 86.2328 95.88C87.0648 95.88 87.7528 96.144 88.2968 96.672C88.8488 97.2 89.1248 97.928 89.1248 98.856C89.1248 99.016 89.1208 99.16 89.1128 99.288H84.3968C84.4288 99.776 84.6168 100.172 84.9608 100.476C85.3048 100.772 85.7328 100.92 86.2448 100.92C87.0128 100.92 87.5848 100.616 87.9608 100.008L88.9688 100.728C88.3928 101.656 87.4808 102.12 86.2328 102.12ZM84.4568 98.328H87.7928C87.7208 97.912 87.5328 97.588 87.2288 97.356C86.9328 97.116 86.5848 96.996 86.1848 96.996C85.7688 96.996 85.3968 97.112 85.0688 97.344C84.7488 97.576 84.5448 97.904 84.4568 98.328ZM92.992 102.06C92.384 102.06 91.888 101.892 91.504 101.556C91.128 101.212 90.94 100.716 90.94 100.068V97.176H89.692V96H90.94V94.332H92.26V96H93.976V97.176H92.26V99.852C92.26 100.22 92.34 100.484 92.5 100.644C92.66 100.796 92.916 100.872 93.268 100.872C93.556 100.872 93.792 100.832 93.976 100.752V101.928C93.688 102.016 93.36 102.06 92.992 102.06ZM97.6058 102.12C96.7898 102.12 96.1018 101.816 95.5418 101.208C94.9898 100.6 94.7138 99.864 94.7138 99C94.7138 98.136 94.9898 97.4 95.5418 96.792C96.1018 96.184 96.7898 95.88 97.6058 95.88C98.0138 95.88 98.3898 95.972 98.7338 96.156C99.0778 96.332 99.3418 96.548 99.5258 96.804V96H100.846V102H99.5258V101.196C99.3418 101.452 99.0778 101.672 98.7338 101.856C98.3898 102.032 98.0138 102.12 97.6058 102.12ZM96.5618 100.368C96.8978 100.736 97.3258 100.92 97.8458 100.92C98.3658 100.92 98.7938 100.736 99.1298 100.368C99.4658 100 99.6338 99.544 99.6338 99C99.6338 98.456 99.4658 98 99.1298 97.632C98.7938 97.264 98.3658 97.08 97.8458 97.08C97.3258 97.08 96.8978 97.264 96.5618 97.632C96.2258 98 96.0578 98.456 96.0578 99C96.0578 99.544 96.2258 100 96.5618 100.368ZM103.294 94.692C103.054 94.692 102.846 94.608 102.67 94.44C102.494 94.264 102.406 94.052 102.406 93.804C102.406 93.564 102.494 93.36 102.67 93.192C102.846 93.016 103.054 92.928 103.294 92.928C103.542 92.928 103.75 93.016 103.918 93.192C104.086 93.36 104.17 93.564 104.17 93.804C104.17 94.052 104.086 94.264 103.918 94.44C103.75 94.608 103.542 94.692 103.294 94.692ZM102.634 102V96H103.954V102H102.634ZM105.728 102V93H107.048V102H105.728ZM110.73 102.12C110.178 102.12 109.69 102.016 109.266 101.808C108.842 101.592 108.526 101.272 108.318 100.848L109.29 100.152C109.41 100.408 109.602 100.612 109.866 100.764C110.13 100.908 110.418 100.98 110.73 100.98C110.978 100.98 111.182 100.924 111.342 100.812C111.51 100.7 111.594 100.544 111.594 100.344C111.594 100.168 111.526 100.024 111.39 99.912C111.262 99.8 111.022 99.688 110.67 99.576L110.142 99.432C109.078 99.144 108.554 98.532 108.57 97.596C108.57 97.076 108.774 96.66 109.182 96.348C109.59 96.036 110.102 95.88 110.718 95.88C111.646 95.88 112.322 96.22 112.746 96.9L111.834 97.596C111.53 97.188 111.15 96.984 110.694 96.984C110.478 96.984 110.29 97.036 110.13 97.14C109.97 97.236 109.89 97.372 109.89 97.548C109.89 97.708 109.942 97.844 110.046 97.956C110.15 98.068 110.338 98.168 110.61 98.256L111.222 98.436C111.782 98.604 112.202 98.832 112.482 99.12C112.762 99.4 112.902 99.78 112.902 100.26C112.902 100.828 112.698 101.28 112.29 101.616C111.882 101.952 111.362 102.12 110.73 102.12Z" fill="#404143"/>
<path d="M137.218 14V4.06H140.27C141.745 4.06 142.981 4.536 143.98 5.488C144.979 6.44 145.478 7.62067 145.478 9.03C145.478 10.4393 144.979 11.62 143.98 12.572C142.981 13.524 141.745 14 140.27 14H137.218ZM138.856 12.474H140.27C141.315 12.474 142.165 12.1473 142.818 11.494C143.481 10.8407 143.812 10.0193 143.812 9.03C143.812 8.04067 143.481 7.21933 142.818 6.566C142.165 5.91267 141.315 5.586 140.27 5.586H138.856V12.474ZM150.263 14.14C149.199 14.14 148.321 13.7993 147.631 13.118C146.949 12.4367 146.609 11.564 146.609 10.5C146.609 9.464 146.954 8.60067 147.645 7.91C148.335 7.21 149.208 6.86 150.263 6.86C151.233 6.86 152.036 7.168 152.671 7.784C153.315 8.4 153.637 9.24933 153.637 10.332C153.637 10.5187 153.632 10.6867 153.623 10.836H148.12C148.158 11.4053 148.377 11.8673 148.779 12.222C149.18 12.5673 149.679 12.74 150.277 12.74C151.173 12.74 151.84 12.3853 152.279 11.676L153.454 12.516C152.783 13.5987 151.719 14.14 150.263 14.14ZM148.191 9.716H152.083C151.999 9.23067 151.779 8.85267 151.425 8.582C151.079 8.302 150.673 8.162 150.207 8.162C149.721 8.162 149.287 8.29733 148.905 8.568C148.531 8.83867 148.293 9.22133 148.191 9.716ZM156.76 16.926H155.22V7H156.76V7.938C156.974 7.63933 157.282 7.38733 157.684 7.182C158.094 6.96733 158.538 6.86 159.014 6.86C159.966 6.86 160.764 7.21467 161.408 7.924C162.061 8.63333 162.388 9.492 162.388 10.5C162.388 11.508 162.061 12.3667 161.408 13.076C160.764 13.7853 159.966 14.14 159.014 14.14C158.538 14.14 158.094 14.0373 157.684 13.832C157.282 13.6173 156.974 13.3607 156.76 13.062V16.926ZM158.734 12.74C159.34 12.74 159.84 12.5253 160.232 12.096C160.624 11.6667 160.82 11.1347 160.82 10.5C160.82 9.86533 160.624 9.33333 160.232 8.904C159.84 8.47467 159.34 8.26 158.734 8.26C158.118 8.26 157.614 8.47467 157.222 8.904C156.83 9.33333 156.634 9.86533 156.634 10.5C156.634 11.1347 156.83 11.6667 157.222 12.096C157.614 12.5253 158.118 12.74 158.734 12.74ZM169.724 13.09C169.024 13.79 168.156 14.14 167.12 14.14C166.084 14.14 165.211 13.79 164.502 13.09C163.802 12.3807 163.452 11.5173 163.452 10.5C163.452 9.48267 163.802 8.624 164.502 7.924C165.211 7.21467 166.084 6.86 167.12 6.86C168.156 6.86 169.024 7.21467 169.724 7.924C170.433 8.624 170.788 9.48267 170.788 10.5C170.788 11.5173 170.433 12.3807 169.724 13.09ZM167.12 12.712C167.727 12.712 168.226 12.502 168.618 12.082C169.019 11.6527 169.22 11.1253 169.22 10.5C169.22 9.87467 169.019 9.352 168.618 8.932C168.226 8.50267 167.727 8.288 167.12 8.288C166.504 8.288 165.995 8.50267 165.594 8.932C165.202 9.352 165.006 9.87467 165.006 10.5C165.006 11.1253 165.202 11.6527 165.594 12.082C165.995 12.502 166.504 12.712 167.12 12.712ZM174.535 14.14C173.891 14.14 173.322 14.0187 172.827 13.776C172.333 13.524 171.964 13.1507 171.721 12.656L172.855 11.844C172.995 12.1427 173.219 12.3807 173.527 12.558C173.835 12.726 174.171 12.81 174.535 12.81C174.825 12.81 175.063 12.7447 175.249 12.614C175.445 12.4833 175.543 12.3013 175.543 12.068C175.543 11.8627 175.464 11.6947 175.305 11.564C175.156 11.4333 174.876 11.3027 174.465 11.172L173.849 11.004C172.608 10.668 171.997 9.954 172.015 8.862C172.015 8.25533 172.253 7.77 172.729 7.406C173.205 7.042 173.803 6.86 174.521 6.86C175.604 6.86 176.393 7.25667 176.887 8.05L175.823 8.862C175.469 8.386 175.025 8.148 174.493 8.148C174.241 8.148 174.022 8.20867 173.835 8.33C173.649 8.442 173.555 8.60067 173.555 8.806C173.555 8.99267 173.616 9.15133 173.737 9.282C173.859 9.41267 174.078 9.52933 174.395 9.632L175.109 9.842C175.763 10.038 176.253 10.304 176.579 10.64C176.906 10.9667 177.069 11.41 177.069 11.97C177.069 12.6327 176.831 13.16 176.355 13.552C175.879 13.944 175.273 14.14 174.535 14.14ZM179.437 5.474C179.157 5.474 178.914 5.376 178.709 5.18C178.504 4.97467 178.401 4.72733 178.401 4.438C178.401 4.158 178.504 3.92 178.709 3.724C178.914 3.51867 179.157 3.416 179.437 3.416C179.726 3.416 179.969 3.51867 180.165 3.724C180.361 3.92 180.459 4.158 180.459 4.438C180.459 4.72733 180.361 4.97467 180.165 5.18C179.969 5.376 179.726 5.474 179.437 5.474ZM178.667 14V7H180.207V14H178.667ZM185.314 14.07C184.605 14.07 184.026 13.874 183.578 13.482C183.14 13.0807 182.92 12.502 182.92 11.746V8.372H181.464V7H182.92V5.054H184.46V7H186.462V8.372H184.46V11.494C184.46 11.9233 184.554 12.2313 184.74 12.418C184.927 12.5953 185.226 12.684 185.636 12.684C185.972 12.684 186.248 12.6373 186.462 12.544V13.916C186.126 14.0187 185.744 14.07 185.314 14.07ZM194.172 14.168C193.378 14.168 192.664 14.0047 192.03 13.678C191.395 13.3513 190.928 12.9173 190.63 12.376L191.918 11.354C192.468 12.2033 193.238 12.628 194.228 12.628C194.704 12.628 195.091 12.516 195.39 12.292C195.688 12.0587 195.838 11.76 195.838 11.396C195.838 10.7333 195.366 10.2293 194.424 9.884L193.332 9.492C192.529 9.20267 191.936 8.834 191.554 8.386C191.171 7.92867 190.98 7.364 190.98 6.692C190.98 5.84267 191.283 5.166 191.89 4.662C192.496 4.14867 193.271 3.892 194.214 3.892C195.474 3.892 196.477 4.34467 197.224 5.25L196.09 6.356C195.576 5.74 194.946 5.432 194.2 5.432C193.761 5.432 193.388 5.53467 193.08 5.74C192.781 5.94533 192.632 6.22533 192.632 6.58C192.632 6.92533 192.744 7.20067 192.968 7.406C193.201 7.602 193.593 7.80267 194.144 8.008L195.152 8.386C195.917 8.67533 196.5 9.05333 196.902 9.52C197.303 9.98667 197.499 10.5793 197.49 11.298C197.49 12.1567 197.182 12.852 196.566 13.384C195.95 13.9067 195.152 14.168 194.172 14.168ZM201.53 14.14C200.728 14.14 200.093 13.874 199.626 13.342C199.16 12.8007 198.926 12.082 198.926 11.186V7H200.466V10.934C200.466 11.494 200.588 11.9373 200.83 12.264C201.073 12.5813 201.418 12.74 201.866 12.74C202.389 12.74 202.804 12.544 203.112 12.152C203.42 11.7507 203.574 11.1813 203.574 10.444V7H205.114V14H203.574V13.048C203.164 13.776 202.482 14.14 201.53 14.14ZM216.104 14V10.066C216.104 9.49667 215.997 9.05333 215.782 8.736C215.577 8.41867 215.269 8.26 214.858 8.26C214.364 8.26 213.967 8.45133 213.668 8.834C213.37 9.21667 213.211 9.75333 213.192 10.444V14H211.652V10.066C211.652 9.49667 211.545 9.05333 211.33 8.736C211.125 8.41867 210.817 8.26 210.406 8.26C209.893 8.26 209.482 8.46067 209.174 8.862C208.876 9.26333 208.726 9.828 208.726 10.556V14H207.186V7H208.726V7.952C209.156 7.224 209.818 6.86 210.714 6.86C211.769 6.86 212.492 7.322 212.884 8.246C213.08 7.80733 213.379 7.46667 213.78 7.224C214.191 6.98133 214.639 6.86 215.124 6.86C215.908 6.86 216.524 7.126 216.972 7.658C217.42 8.19 217.644 8.90867 217.644 9.814V14H216.104ZM228.532 14V10.066C228.532 9.49667 228.425 9.05333 228.21 8.736C228.005 8.41867 227.697 8.26 227.286 8.26C226.791 8.26 226.395 8.45133 226.096 8.834C225.797 9.21667 225.639 9.75333 225.62 10.444V14H224.08V10.066C224.08 9.49667 223.973 9.05333 223.758 8.736C223.553 8.41867 223.245 8.26 222.834 8.26C222.321 8.26 221.91 8.46067 221.602 8.862C221.303 9.26333 221.154 9.828 221.154 10.556V14H219.614V7H221.154V7.952C221.583 7.224 222.246 6.86 223.142 6.86C224.197 6.86 224.92 7.322 225.312 8.246C225.508 7.80733 225.807 7.46667 226.208 7.224C226.619 6.98133 227.067 6.86 227.552 6.86C228.336 6.86 228.952 7.126 229.4 7.658C229.848 8.19 230.072 8.90867 230.072 9.814V14H228.532ZM234.912 14.14C233.96 14.14 233.157 13.7853 232.504 13.076C231.86 12.3667 231.538 11.508 231.538 10.5C231.538 9.492 231.86 8.63333 232.504 7.924C233.157 7.21467 233.96 6.86 234.912 6.86C235.388 6.86 235.827 6.96733 236.228 7.182C236.629 7.38733 236.937 7.63933 237.152 7.938V7H238.692V14H237.152V13.062C236.937 13.3607 236.629 13.6173 236.228 13.832C235.827 14.0373 235.388 14.14 234.912 14.14ZM233.694 12.096C234.086 12.5253 234.585 12.74 235.192 12.74C235.799 12.74 236.298 12.5253 236.69 12.096C237.082 11.6667 237.278 11.1347 237.278 10.5C237.278 9.86533 237.082 9.33333 236.69 8.904C236.298 8.47467 235.799 8.26 235.192 8.26C234.585 8.26 234.086 8.47467 233.694 8.904C233.302 9.33333 233.106 9.86533 233.106 10.5C233.106 11.1347 233.302 11.6667 233.694 12.096ZM240.778 14V7H242.318V8.246C242.449 7.854 242.687 7.53667 243.032 7.294C243.387 7.05133 243.765 6.93 244.166 6.93C244.409 6.93 244.61 6.94867 244.768 6.986V8.568C244.544 8.484 244.288 8.442 243.998 8.442C243.532 8.442 243.135 8.63333 242.808 9.016C242.482 9.38933 242.318 9.912 242.318 10.584V14H240.778ZM248.337 16.926H246.643L248.141 13.622L245.131 7H246.825L248.967 11.956L251.123 7H252.831L248.337 16.926Z" fill="#404143"/>
</svg>
