<svg width="37" height="44" viewBox="0 0 37 44" fill="none" xmlns="http://www.w3.org/2000/svg">
<rect width="37" height="38" rx="18.5" fill="#E3CAF3"/>
<g clip-path="url(#clip0_1370_4357)">
<path d="M12.5379 13.0273L13.6056 14.0951C13.0438 14.6554 12.5983 15.3212 12.2947 16.0543C11.9911 16.7874 11.8353 17.5732 11.8364 18.3667C11.8364 20.0354 12.5122 21.5456 13.6056 22.6383L12.5386 23.7052C11.8364 23.005 11.2794 22.1729 10.8997 21.2567C10.52 20.3406 10.3251 19.3584 10.3262 18.3667C10.3249 17.3749 10.5197 16.3926 10.8992 15.4763C11.2788 14.56 11.8357 13.7277 12.5379 13.0273ZM23.2165 13.0273C23.9187 13.7277 24.4756 14.56 24.8552 15.4763C25.2347 16.3926 25.4295 17.3749 25.4282 18.3667C25.4295 19.3585 25.2347 20.3407 24.8552 21.257C24.4756 22.1733 23.9187 23.0056 23.2165 23.706L22.1488 22.6383C22.7106 22.0779 23.1561 21.4121 23.4597 20.679C23.7633 19.946 23.9191 19.1601 23.918 18.3667C23.918 16.6979 23.2422 15.1877 22.1488 14.0951L23.2158 13.0281L23.2165 13.0273ZM14.6733 15.1628L15.7418 16.2312C15.4608 16.5113 15.238 16.8442 15.0862 17.2106C14.9343 17.5771 14.8563 17.97 14.8568 18.3667C14.8568 19.2011 15.1951 19.9562 15.7418 20.5021L14.6733 21.5706C14.252 21.1503 13.9179 20.6509 13.6902 20.101C13.4625 19.5512 13.3457 18.9618 13.3466 18.3667C13.3466 17.1155 13.854 15.9828 14.6733 15.1628ZM21.0811 15.1628C21.5024 15.5831 21.8365 16.0825 22.0642 16.6323C22.2919 17.1821 22.4087 17.7716 22.4078 18.3667C22.4087 18.9618 22.2919 19.5512 22.0642 20.101C21.8365 20.6509 21.5024 21.1503 21.0811 21.5706L20.0126 20.5021C20.2936 20.222 20.5164 19.8892 20.6682 19.5227C20.8201 19.1562 20.8981 18.7634 20.8976 18.3667C20.8981 17.97 20.8201 17.5771 20.6682 17.2106C20.5164 16.8442 20.2936 16.5113 20.0126 16.2312L21.0811 15.1628ZM17.8772 19.8769C17.4767 19.8769 17.0925 19.7178 16.8093 19.4345C16.5261 19.1513 16.367 18.7672 16.367 18.3667C16.367 17.9661 16.5261 17.582 16.8093 17.2988C17.0925 17.0156 17.4767 16.8565 17.8772 16.8565C18.2777 16.8565 18.6619 17.0156 18.9451 17.2988C19.2283 17.582 19.3874 17.9661 19.3874 18.3667C19.3874 18.7672 19.2283 19.1513 18.9451 19.4345C18.6619 19.7178 18.2777 19.8769 17.8772 19.8769ZM17.8772 21.3871C18.3152 21.3871 18.6904 21.6989 18.7712 22.1293L19.765 27.4279H15.9894L16.9832 22.1293C17.064 21.6989 17.4392 21.3871 17.8772 21.3871Z" fill="#A243DC"/>
</g>
<defs>
<clipPath id="clip0_1370_4357">
<rect width="18.1224" height="18.1224" fill="white" transform="translate(8.81641 10.8164)"/>
</clipPath>
</defs>
</svg>
