<svg width="16" height="16" viewBox="0 0 16 16" fill="none" xmlns="http://www.w3.org/2000/svg">
<circle cx="8" cy="8" r="8" fill="#198155"/>
<path d="M5.59353 11.9422V9.21498H4.95312V8.39791H5.59353V7.60292H4.95312V6.78585H5.59353V4.05859H7.32705L8.18829 6.78585H9.19307V4.05859H10.4187V6.78585H11.048V7.60292H10.4187V8.39791H11.048V9.21498H10.4187V11.9422H8.67412L7.79079 9.21498H6.81914V11.9422H5.59353ZM6.81914 8.39791H7.54788L7.30497 7.60292H6.79706L6.81914 8.39791ZM9.22619 10.2198H9.2814L9.23723 9.21498H8.93911L9.22619 10.2198ZM6.77498 6.78585H7.08414L6.76393 5.72586H6.71977L6.77498 6.78585ZM8.70724 8.39791H9.21515L9.19307 7.60292H8.45329L8.70724 8.39791Z" fill="white"/>
</svg>
