<svg width="50" height="50" viewBox="0 0 50 50" fill="none" xmlns="http://www.w3.org/2000/svg">
<rect width="44" height="44" rx="22" fill="#E3CAF3"/>
<path fill-rule="evenodd" clip-rule="evenodd" d="M22.6092 11.3477C19.9088 11.3477 17.4487 12.2396 15.993 12.9684C15.8615 13.0341 15.7388 13.0983 15.6248 13.1609C15.3988 13.284 15.2063 13.3988 15.0532 13.4998L16.7092 15.9378L17.4888 16.248C20.5353 17.785 24.6209 17.785 27.668 16.248L28.5528 15.7889L30.1185 13.4998C29.7938 13.2889 29.4566 13.0978 29.1087 12.9277C27.6602 12.2067 25.2587 11.3477 22.6098 11.3477M18.7586 14.1072C18.1723 13.9969 17.5932 13.8516 17.0243 13.672C18.3879 13.0664 20.4199 12.4237 22.6098 12.4237C24.1265 12.4237 25.5606 12.7322 26.7467 13.1232C25.3568 13.3187 23.8736 13.6505 22.4603 14.0588C21.3484 14.3804 20.0487 14.3458 18.7586 14.1072ZM28.2999 17.1346L28.1528 17.2087C24.8014 18.8994 20.356 18.8994 17.0046 17.2087L16.8653 17.1382C11.8298 22.6627 7.98575 32.8676 22.6092 32.8676C37.2326 32.8676 33.2953 22.4732 28.2999 17.1346ZM21.988 22.1085C21.6709 22.1085 21.3668 22.2345 21.1426 22.4587C20.9183 22.683 20.7924 22.9871 20.7924 23.3042C20.7924 23.6213 20.9183 23.9254 21.1426 24.1496C21.3668 24.3739 21.6709 24.4998 21.988 24.4998V22.1085ZM23.1837 20.9129V20.315H21.988V20.9129C21.3538 20.9129 20.7456 21.1648 20.2971 21.6133C19.8487 22.0617 19.5967 22.67 19.5967 23.3042C19.5967 23.9384 19.8487 24.5466 20.2971 24.9951C20.7456 25.4435 21.3538 25.6955 21.988 25.6955V28.0868C21.4679 28.0868 21.0249 27.755 20.8599 27.2899C20.8355 27.2138 20.796 27.1434 20.7438 27.0828C20.6916 27.0222 20.6278 26.9728 20.5562 26.9373C20.4846 26.9018 20.4066 26.881 20.3268 26.8762C20.247 26.8714 20.167 26.8827 20.0917 26.9093C20.0163 26.9359 19.947 26.9774 19.888 27.0313C19.8289 27.0851 19.7813 27.1503 19.7478 27.2229C19.7144 27.2955 19.6958 27.3741 19.6933 27.454C19.6908 27.5339 19.7043 27.6135 19.733 27.688C19.8979 28.1544 20.2032 28.5581 20.6071 28.8437C21.011 29.1292 21.4934 29.2825 21.988 29.2824V29.8803H23.1837V29.2824C23.8179 29.2824 24.4261 29.0305 24.8746 28.582C25.323 28.1336 25.575 27.5253 25.575 26.8911C25.575 26.2569 25.323 25.6487 24.8746 25.2002C24.4261 24.7518 23.8179 24.4998 23.1837 24.4998V22.1085C23.7038 22.1085 24.1468 22.4403 24.3118 22.9054C24.3363 22.9815 24.3758 23.0519 24.4279 23.1125C24.4801 23.1731 24.5439 23.2226 24.6155 23.258C24.6871 23.2935 24.7651 23.3143 24.8449 23.3191C24.9247 23.3239 25.0047 23.3127 25.08 23.286C25.1554 23.2594 25.2247 23.2179 25.2837 23.1641C25.3428 23.1102 25.3905 23.045 25.4239 22.9724C25.4573 22.8998 25.4759 22.8212 25.4784 22.7413C25.4809 22.6615 25.4674 22.5819 25.4387 22.5073C25.2739 22.0409 24.9685 21.6372 24.5646 21.3516C24.1608 21.0661 23.6783 20.9128 23.1837 20.9129ZM23.1837 25.6955V28.0868C23.5008 28.0868 23.8049 27.9608 24.0291 27.7366C24.2534 27.5124 24.3793 27.2082 24.3793 26.8911C24.3793 26.574 24.2534 26.2699 24.0291 26.0457C23.8049 25.8215 23.5008 25.6955 23.1837 25.6955Z" fill="#A243DC"/>
</svg>
