<svg width="37" height="38" viewBox="0 0 37 38" fill="none" xmlns="http://www.w3.org/2000/svg">
<rect width="37" height="38" rx="18.5" fill="#E3CAF3"/>
<path d="M16.0846 21.0843L14.418 28.1676L19.0013 25.251L23.5846 28.1676L21.918 21.0843M19.0013 15.251L17.7513 16.501L19.0013 17.751L20.2496 16.501L18.9996 15.251H19.0013Z" stroke="#A243DC" stroke-width="0.648649" stroke-miterlimit="10" stroke-linecap="round" stroke-linejoin="round"/>
<path d="M23.584 18.399L25.6673 16.5007L23.584 14.6023V11.9173H20.899L19.0007 9.83398L17.1023 11.9173H14.4173V14.6023L12.334 16.5007L14.4173 18.399V21.084H17.1023L19.0007 23.1673L20.899 21.084H23.584V18.399Z" stroke="#A243DC" stroke-width="0.648649" stroke-miterlimit="10" stroke-linecap="round" stroke-linejoin="round"/>
<path d="M16.084 14.8337L19.0007 13.167L21.9173 14.8337V18.167L19.0007 19.8337L16.084 18.167V14.8337Z" stroke="#A243DC" stroke-width="0.648649" stroke-miterlimit="10" stroke-linecap="round" stroke-linejoin="round"/>
</svg>
